<?xml version="1.0" encoding="UTF-8" standalone="no"?>
<!-- Generator: Adobe Illustrator 18.0.0, SVG Export Plug-In . SVG Version: 6.00 Build 0)  -->

<svg
   version="1.1"
   id="Capa_1"
   x="0px"
   y="0px"
   viewBox="0 0 112.196 112.196"
   style="enable-background:new 0 0 112.196 112.196;"
   xml:space="preserve"
   sodipodi:docname="instagram.svg"
   inkscape:version="1.2.1 (9c6d41e410, 2022-07-14)"
   xmlns:inkscape="http://www.inkscape.org/namespaces/inkscape"
   xmlns:sodipodi="http://sodipodi.sourceforge.net/DTD/sodipodi-0.dtd"
   xmlns="http://www.w3.org/2000/svg"
   xmlns:svg="http://www.w3.org/2000/svg"><defs
   id="defs40" /><sodipodi:namedview
   id="namedview38"
   pagecolor="#505050"
   bordercolor="#eeeeee"
   borderopacity="1"
   inkscape:showpageshadow="0"
   inkscape:pageopacity="0"
   inkscape:pagecheckerboard="0"
   inkscape:deskcolor="#505050"
   showgrid="false"
   inkscape:zoom="7.1660309"
   inkscape:cx="32.654059"
   inkscape:cy="45.003992"
   inkscape:window-width="1920"
   inkscape:window-height="991"
   inkscape:window-x="-9"
   inkscape:window-y="-9"
   inkscape:window-maximized="1"
   inkscape:current-layer="g5" />
<g
   id="g5">
	<path
   id="XMLID_115_"
   style="fill:#000000"
   d="M 56.097656 -0.001953125 A 56.098 56.098 0 0 0 0 56.097656 A 56.098 56.098 0 0 0 56.097656 112.19531 A 56.098 56.098 0 0 0 112.19531 56.097656 A 56.098 56.098 0 0 0 56.097656 -0.001953125 z M 33.074219 22.505859 L 79.123047 22.505859 C 84.953041 22.505859 89.683594 27.236178 89.683594 33.076172 L 89.683594 79.126953 C 89.683594 84.956947 84.953041 89.685547 79.123047 89.685547 L 33.074219 89.685547 C 27.244225 89.685547 22.513672 84.956947 22.513672 79.126953 L 22.513672 33.076172 C 22.513672 27.236178 27.244225 22.505859 33.074219 22.505859 z M 80.423828 30.255859 L 71.982422 30.275391 C 71.172423 30.285391 70.523203 30.936095 70.533203 31.746094 L 70.5625 40.216797 C 70.5625 41.016796 71.213438 41.666016 72.023438 41.666016 L 80.453125 41.636719 C 81.263124 41.636719 81.912109 40.98578 81.912109 40.175781 L 81.912109 31.705078 C 81.912109 30.905079 81.253359 30.245859 80.443359 30.255859 L 80.423828 30.255859 z M 56.09375 44.275391 C 52.153754 44.275391 48.66367 46.225081 46.513672 49.205078 C 46.253672 49.565078 46.024687 49.946172 45.804688 50.326172 C 44.834688 52.03617 44.272438 54.005705 44.273438 56.095703 C 44.273438 62.615697 49.573757 67.916016 56.09375 67.916016 C 62.613743 67.916016 67.923828 62.615697 67.923828 56.095703 C 67.923828 54.005705 67.35453 52.035936 66.394531 50.335938 C 66.174531 49.945938 65.943593 49.565078 65.683594 49.205078 C 63.533596 46.225081 60.043746 44.275391 56.09375 44.275391 z M 29.054688 49.205078 L 29.054688 76.705078 C 29.054688 80.255075 31.944144 83.146484 35.494141 83.146484 L 76.703125 83.146484 C 80.253121 83.146484 83.144531 80.255075 83.144531 76.705078 L 83.144531 49.205078 L 73.113281 49.205078 C 73.363281 49.815078 73.573672 50.455704 73.763672 51.095703 C 74.213671 52.685702 74.464844 54.365705 74.464844 56.095703 C 74.464844 66.225693 66.22374 74.466797 56.09375 74.466797 C 45.97376 74.466797 37.734375 66.225693 37.734375 56.095703 C 37.734375 54.365705 37.973594 52.685702 38.433594 51.095703 C 38.613594 50.455704 38.833985 49.815078 39.083984 49.205078 L 29.054688 49.205078 z " />
	
</g>
<g
   id="g7">
</g>
<g
   id="g9">
</g>
<g
   id="g11">
</g>
<g
   id="g13">
</g>
<g
   id="g15">
</g>
<g
   id="g17">
</g>
<g
   id="g19">
</g>
<g
   id="g21">
</g>
<g
   id="g23">
</g>
<g
   id="g25">
</g>
<g
   id="g27">
</g>
<g
   id="g29">
</g>
<g
   id="g31">
</g>
<g
   id="g33">
</g>
<g
   id="g35">
</g>
</svg>
